<?xml version="1.0" encoding="UTF-8" standalone="no"?>
<svg
   xmlns:dc="http://purl.org/dc/elements/1.1/"
   xmlns:cc="http://creativecommons.org/ns#"
   xmlns:rdf="http://www.w3.org/1999/02/22-rdf-syntax-ns#"
   xmlns:svg="http://www.w3.org/2000/svg"
   xmlns="http://www.w3.org/2000/svg"
   xmlns:xlink="http://www.w3.org/1999/xlink"
   xmlns:sodipodi="http://sodipodi.sourceforge.net/DTD/sodipodi-0.dtd"
   xmlns:inkscape="http://www.inkscape.org/namespaces/inkscape"
   width="94.538078mm"
   height="100.10856mm"
   viewBox="0 0 94.538078 100.10856"
   version="1.1"
   id="svg8"
   inkscape:version="1.0.2 (e86c8708, 2021-01-15)"
   sodipodi:docname="hedron-logo-opt.svg"
   inkscape:export-filename="/Users/zareen/Documents/Design/Hedron/hedron-logo-2.png"
   inkscape:export-xdpi="150.00539"
   inkscape:export-ydpi="150.00539">
  <defs
     id="defs2">
    <rect
       x="44.525597"
       y="56.836823"
       width="112.64771"
       height="105.67135"
       id="rect1433" />
    <linearGradient
       inkscape:collect="always"
       id="linearGradient1426">
      <stop
         style="stop-color:#ffccaa;stop-opacity:1"
         offset="0"
         id="stop1422" />
      <stop
         style="stop-color:#d7f4ee;stop-opacity:0;"
         offset="1"
         id="stop1424" />
    </linearGradient>
    <linearGradient
       inkscape:collect="always"
       id="linearGradient1406">
      <stop
         style="stop-color:#bababa;stop-opacity:0.03191489"
         offset="0"
         id="stop1402" />
      <stop
         style="stop-color:#000000;stop-opacity:0.69"
         offset="1"
         id="stop1404" />
    </linearGradient>
    <linearGradient
       inkscape:collect="always"
       id="linearGradient1392">
      <stop
         style="stop-color:#ffffff;stop-opacity:1"
         offset="0"
         id="stop1388" />
      <stop
         style="stop-color:#8a8a8a;stop-opacity:0.10588236"
         offset="1"
         id="stop1390" />
    </linearGradient>
    <inkscape:path-effect
       effect="powerclip"
       id="path-effect1379"
       is_visible="true"
       lpeversion="1"
       inverse="true"
       flatten="false"
       hide_clip="false"
       message="Use fill-rule evenodd on &lt;b&gt;fill and stroke&lt;/b&gt; dialog if no flatten result after convert clip to paths." />
    <inkscape:path-effect
       effect="powerclip"
       id="path-effect1375"
       is_visible="true"
       lpeversion="1"
       inverse="true"
       flatten="false"
       hide_clip="false"
       message="Use fill-rule evenodd on &lt;b&gt;fill and stroke&lt;/b&gt; dialog if no flatten result after convert clip to paths." />
    <inkscape:path-effect
       effect="powerclip"
       id="path-effect1371"
       is_visible="true"
       lpeversion="1"
       inverse="true"
       flatten="false"
       hide_clip="false"
       message="Use fill-rule evenodd on &lt;b&gt;fill and stroke&lt;/b&gt; dialog if no flatten result after convert clip to paths." />
    <inkscape:path-effect
       effect="powerclip"
       id="path-effect1367"
       is_visible="true"
       lpeversion="1"
       inverse="true"
       flatten="false"
       hide_clip="false"
       message="Use fill-rule evenodd on &lt;b&gt;fill and stroke&lt;/b&gt; dialog if no flatten result after convert clip to paths." />
    <inkscape:path-effect
       effect="powerclip"
       id="path-effect1363"
       is_visible="true"
       lpeversion="1"
       inverse="true"
       flatten="false"
       hide_clip="false"
       message="Use fill-rule evenodd on &lt;b&gt;fill and stroke&lt;/b&gt; dialog if no flatten result after convert clip to paths." />
    <inkscape:path-effect
       effect="powerclip"
       id="path-effect1359"
       is_visible="true"
       lpeversion="1"
       inverse="true"
       flatten="false"
       hide_clip="false"
       message="Use fill-rule evenodd on &lt;b&gt;fill and stroke&lt;/b&gt; dialog if no flatten result after convert clip to paths." />
    <inkscape:path-effect
       effect="powerclip"
       id="path-effect1355"
       is_visible="true"
       lpeversion="1"
       inverse="true"
       flatten="false"
       hide_clip="false"
       message="Use fill-rule evenodd on &lt;b&gt;fill and stroke&lt;/b&gt; dialog if no flatten result after convert clip to paths." />
    <inkscape:path-effect
       effect="powerclip"
       id="path-effect1351"
       is_visible="true"
       lpeversion="1"
       inverse="true"
       flatten="false"
       hide_clip="false"
       message="Use fill-rule evenodd on &lt;b&gt;fill and stroke&lt;/b&gt; dialog if no flatten result after convert clip to paths." />
    <inkscape:path-effect
       effect="powerclip"
       id="path-effect1347"
       is_visible="true"
       lpeversion="1"
       inverse="true"
       flatten="false"
       hide_clip="false"
       message="Use fill-rule evenodd on &lt;b&gt;fill and stroke&lt;/b&gt; dialog if no flatten result after convert clip to paths." />
    <inkscape:path-effect
       effect="powermask"
       id="path-effect1079"
       is_visible="true"
       lpeversion="1"
       uri="#mask-powermask-path-effect1079"
       invert="false"
       hide_mask="false"
       background="true"
       background_color="#ffffffff" />
    <inkscape:path-effect
       effect="powermask"
       id="path-effect1068"
       is_visible="true"
       lpeversion="1"
       uri="#mask-powermask-path-effect1068"
       invert="false"
       hide_mask="false"
       background="true"
       background_color="#ffffffff" />
    <marker
       style="overflow:visible"
       id="Scissors"
       refX="0"
       refY="0"
       orient="auto"
       inkscape:stockid="Scissors"
       inkscape:isstock="true">
      <path
         style="fill:#ffffff;fill-opacity:1;stroke:#ffffff;stroke-opacity:1"
         d="M 9.0898857,-3.6061018 C 8.1198849,-4.7769976 6.3697607,-4.7358294 5.0623558,-4.2327734 l -8.2124046,3.0779029 c -2.3882933,-1.3067135 -4.7482873,-0.9325372 -4.7482873,-1.5687873 0,-0.4973164 0.4566662,-0.3883222 0.3883068,-1.6831941 -0.065635,-1.2432767 -1.3635771,-2.1630796 -2.5903987,-2.0816435 -1.227271,-0.00735 -2.499439,0.9331613 -2.510341,2.2300611 -0.09143,1.3063864 1.007209,2.5196896 2.306764,2.6052316 1.5223406,0.2266616 4.218258,-0.6955566 5.482945,1.57086006 -0.9422847,1.73825774 -2.6140244,1.74307674 -4.1255107,1.65607034 -1.2548743,-0.072235 -2.7620933,0.2873979 -3.3606483,1.5208605 -0.578367,1.1820862 -0.0112,2.8646022 1.316749,3.226412 1.3401912,0.4918277 3.1806689,-0.129711 3.4993722,-1.6707242 0.2456585,-1.187823 -0.5953659,-1.7459574 -0.2725074,-2.1771537 0.2436135,-0.32536 1.7907806,-0.1368452 4.5471053,-1.3748244 L 5.6763468,4.2330688 C 6.8000164,4.5467672 8.1730685,4.5362646 9.1684433,3.4313614 l -9.22008423,-3.48508362 z m -18.3078016,-1.900504 c 1.294559,0.7227998 1.1888392,2.6835702 -0.1564272,3.0632889 -1.2165179,0.423661 -2.7710269,-0.7589694 -2.3831779,-2.0774648 0.227148,-1.0818519 1.653387,-1.480632 2.5396051,-0.9858241 z m 0.056264,8.0173649 c 1.3508301,0.4988648 1.1214429,2.7844356 -0.2522207,3.091609 -0.9110597,0.3163391 -2.2135497,-0.1387976 -2.3056967,-1.2121394 -0.177609,-1.305055 1.356085,-2.4841482 2.5579174,-1.8794696 z"
         id="schere" />
    </marker>
    <marker
       style="overflow:visible"
       id="Arrow1Lstart"
       refX="0"
       refY="0"
       orient="auto"
       inkscape:stockid="Arrow1Lstart"
       inkscape:isstock="true">
      <path
         transform="matrix(0.8,0,0,0.8,10,0)"
         style="fill:#ffffff;fill-opacity:1;fill-rule:evenodd;stroke:#ffffff;stroke-width:1pt;stroke-opacity:1"
         d="M 0,0 5,-5 -12.5,0 5,5 Z"
         id="path1071" />
    </marker>
    <marker
       style="overflow:visible"
       id="Arrow1Mstart"
       refX="0"
       refY="0"
       orient="auto"
       inkscape:stockid="Arrow1Mstart"
       inkscape:isstock="true">
      <path
         transform="matrix(0.4,0,0,0.4,4,0)"
         style="fill:#ffffff;fill-opacity:1;fill-rule:evenodd;stroke:#ffffff;stroke-width:1pt;stroke-opacity:1"
         d="M 0,0 5,-5 -12.5,0 5,5 Z"
         id="path1077" />
    </marker>
    <linearGradient
       inkscape:collect="always"
       id="linearGradient1067">
      <stop
         style="stop-color:#f9f9f9;stop-opacity:1"
         offset="0"
         id="stop1063" />
      <stop
         style="stop-color:#000000;stop-opacity:0.55691057"
         offset="1"
         id="stop1065" />
    </linearGradient>
    <linearGradient
       inkscape:collect="always"
       id="linearGradient1051">
      <stop
         style="stop-color:#1a1a1a;stop-opacity:1;"
         offset="0"
         id="stop1047" />
      <stop
         style="stop-color:#1a1a1a;stop-opacity:0;"
         offset="1"
         id="stop1049" />
    </linearGradient>
    <linearGradient
       inkscape:collect="always"
       xlink:href="#linearGradient1051"
       id="linearGradient1053"
       x1="6.8998117"
       y1="67.163689"
       x2="28.829865"
       y2="71.313309"
       gradientUnits="userSpaceOnUse"
       gradientTransform="translate(54.755175,47.125199)" />
    <linearGradient
       inkscape:collect="always"
       xlink:href="#linearGradient1051"
       id="linearGradient1057"
       gradientUnits="userSpaceOnUse"
       x1="62.488899"
       y1="78.082977"
       x2="6.7927632"
       y2="71.313309"
       gradientTransform="translate(129.14945,-56.42023)" />
    <radialGradient
       inkscape:collect="always"
       xlink:href="#linearGradient1067"
       id="radialGradient1069"
       cx="47.364525"
       cy="56.001389"
       fx="47.364525"
       fy="56.001389"
       r="40.982418"
       gradientTransform="matrix(1,0,0,1.1799092,57.281372,26.836087)"
       gradientUnits="userSpaceOnUse" />
    <clipPath
       clipPathUnits="userSpaceOnUse"
       id="clipPath1311">
      <path
         id="path1313"
         style="display:none;fill:#f9f9f9;fill-opacity:1;stroke:none;stroke-width:1.11125;stroke-linecap:round;stroke-linejoin:round;stroke-miterlimit:4;stroke-dasharray:none;stroke-dashoffset:0;stroke-opacity:1;paint-order:markers fill stroke"
         d="m 140.13511,-16.607255 c -2.216,0 -4.00027,1.784275 -4.00027,4.000273 V 26.892414 H 68.937394 V -7.8072753 c 0,-2.2159987 -1.784273,-3.9997557 -4.000273,-3.9997557 H -45.259252 c -2.215999,0 -3.999756,1.783757 -3.999756,3.9997557 V 206.78582 c 0,2.21601 1.783757,4.00028 3.999756,4.00028 h 71.07473 c 0.46926,0.19243 0.982721,0.30024 1.522904,0.30024 H 241.93148 c 2.216,0 4.00028,-1.78428 4.00028,-4.00027 v -1.1002 h 4.39973 c 2.216,0 3.99975,-1.78376 3.99975,-3.99975 V -12.606982 c 0,-2.215998 -1.78375,-4.000273 -3.99975,-4.000273 z M 96.830782,65.853344 c 1.292445,0.03874 2.595669,1.615501 3.424078,3.326413 7.07758,11.494739 14.15523,22.989443 21.23281,34.484203 1.8362,2.83992 0.42342,6.68157 -1.18184,8.73176 -7.07758,11.4948 -14.15524,22.98993 -21.232807,34.48472 -1.748592,2.98216 -4.114081,0.68732 -5.376416,-1.91978 -7.077546,-11.4948 -14.154755,-22.98992 -21.232296,-34.48472 -1.154533,-1.78668 -1.154822,-5.02454 0,-6.81198 7.471518,-12.134621 14.943132,-24.269381 22.414653,-36.403982 0.601078,-1.025123 1.274824,-1.426927 1.951818,-1.406634 z" />
      <path
         id="lpe_path-effect1347"
         style="fill:#f9f9f9;fill-opacity:1;stroke:none;stroke-width:1.11125;stroke-linecap:round;stroke-linejoin:round;stroke-miterlimit:4;stroke-dasharray:none;stroke-dashoffset:0;stroke-opacity:1;paint-order:markers fill stroke"
         class="powerclip"
         d="M 51.456985,34.115658 H 251.59752 V 200.90321 H 51.456985 Z m 88.678125,-50.722913 c -2.216,0 -4.00027,1.784275 -4.00027,4.000273 V 26.892414 H 68.937394 V -7.8072753 c 0,-2.2159987 -1.784273,-3.9997557 -4.000273,-3.9997557 H -45.259252 c -2.215999,0 -3.999756,1.783757 -3.999756,3.9997557 V 206.78582 c 0,2.21601 1.783757,4.00028 3.999756,4.00028 h 71.07473 c 0.46926,0.19243 0.982721,0.30024 1.522904,0.30024 H 241.93148 c 2.216,0 4.00028,-1.78428 4.00028,-4.00027 v -1.1002 h 4.39973 c 2.216,0 3.99975,-1.78376 3.99975,-3.99975 V -12.606982 c 0,-2.215998 -1.78375,-4.000273 -3.99975,-4.000273 z M 96.830782,65.853344 c -0.676994,-0.02029 -1.35074,0.381511 -1.951818,1.406634 -7.471521,12.134601 -14.943135,24.269361 -22.414653,36.403982 -1.154822,1.78744 -1.154533,5.0253 0,6.81198 7.077541,11.4948 14.15475,22.98992 21.232296,34.48472 1.262335,2.6071 3.627824,4.90194 5.376416,1.91978 7.077567,-11.49479 14.155227,-22.98992 21.232807,-34.48472 1.60526,-2.05019 3.01804,-5.89184 1.18184,-8.73176 C 114.41009,92.1692 107.33244,80.674496 100.25486,69.179757 99.426451,67.468845 98.123227,65.892084 96.830782,65.853344 Z" />
    </clipPath>
    <clipPath
       clipPathUnits="userSpaceOnUse"
       id="clipPath1315">
      <path
         id="path1317"
         style="display:none;fill:#f9f9f9;fill-opacity:1;stroke:none;stroke-width:1.17599;stroke-linecap:round;stroke-linejoin:round;stroke-miterlimit:4;stroke-dasharray:none;stroke-dashoffset:0;stroke-opacity:1;paint-order:markers fill stroke"
         d="m 143.39043,123.88761 c -2.11327,-2.11328 -4.86252,-2.76715 -6.1637,-1.46597 L 114.03356,145.61481 49.951108,81.532367 70.325997,61.157479 c 1.301185,-1.301185 0.647006,-4.05013 -1.466268,-6.163404 l -105.08812,-105.08812 c -2.113275,-2.113274 -4.861727,-2.766962 -6.162912,-1.465776 L -168.39561,74.44449 c -1.30119,1.301187 -0.64781,4.049943 1.46547,6.163217 l 67.779993,67.779993 c 0.334516,0.5605 0.760872,1.11346 1.276015,1.62861 L 106.77131,354.66175 c 2.11327,2.11327 4.86253,2.76714 6.16371,1.46596 l 0.646,-0.64601 4.19578,4.19578 c 2.11328,2.11328 4.86173,2.76696 6.16291,1.46578 L 249.94403,235.13894 c 1.30118,-1.30118 0.6478,-4.04993 -1.46547,-6.16321 z m -89.715951,7.12212 c 1.209784,1.25528 1.526757,3.42393 1.312159,5.21855 3.2e-5,13.49894 1.6e-4,26.99794 1.86e-4,40.4969 0.08354,3.41862 -3.519482,4.32706 -6.254154,4.00004 -13.498985,0 -26.99824,1.1e-4 -40.4972049,1.2e-4 -3.4185929,0.0835 -4.3269482,-3.51979 -3.9999346,-6.25444 3.14e-5,-13.49895 5.697e-4,-26.99777 6.061e-4,-40.49671 -0.051914,-2.15012 1.8490086,-4.05159 3.9998474,-3.99985 14.250348,-1e-5 28.50087,-1e-5 42.751211,-1e-5 1.175144,-0.0287 2.053588,0.37787 2.687284,1.0354 z" />
      <path
         id="lpe_path-effect1351"
         style="fill:#f9f9f9;fill-opacity:1;stroke:none;stroke-width:1.17599;stroke-linecap:round;stroke-linejoin:round;stroke-miterlimit:4;stroke-dasharray:none;stroke-dashoffset:0;stroke-opacity:1;paint-order:markers fill stroke"
         class="powerclip"
         d="M -0.76400089,124.97427 H 59.987018 v 60.75102 H -0.76400089 Z M 143.39043,123.88761 c -2.11327,-2.11328 -4.86252,-2.76715 -6.1637,-1.46597 L 114.03356,145.61481 49.951108,81.532367 70.325997,61.157479 c 1.301185,-1.301185 0.647006,-4.05013 -1.466268,-6.163404 l -105.08812,-105.08812 c -2.113275,-2.113274 -4.861727,-2.766962 -6.162912,-1.465776 L -168.39561,74.44449 c -1.30119,1.301187 -0.64781,4.049943 1.46547,6.163217 l 67.779993,67.779993 c 0.334516,0.5605 0.760872,1.11346 1.276015,1.62861 L 106.77131,354.66175 c 2.11327,2.11327 4.86253,2.76714 6.16371,1.46596 l 0.646,-0.64601 4.19578,4.19578 c 2.11328,2.11328 4.86173,2.76696 6.16291,1.46578 L 249.94403,235.13894 c 1.30118,-1.30118 0.6478,-4.04993 -1.46547,-6.16321 z m -89.715951,7.12212 c -0.633696,-0.65753 -1.51214,-1.0641 -2.687284,-1.0354 -14.250341,0 -28.500863,0 -42.751211,1e-5 -2.1508388,-0.0517 -4.0517614,1.84973 -3.9998474,3.99985 -3.64e-5,13.49894 -5.747e-4,26.99776 -6.061e-4,40.49671 -0.3270136,2.73465 0.5813417,6.33794 3.9999346,6.25444 13.4989649,-10e-6 26.9982199,-1.2e-4 40.4972049,-1.2e-4 2.734672,0.32702 6.337694,-0.58142 6.254154,-4.00004 -2.6e-5,-13.49896 -1.54e-4,-26.99796 -1.86e-4,-40.4969 0.214598,-1.79462 -0.102375,-3.96327 -1.312159,-5.21855 z" />
    </clipPath>
    <clipPath
       clipPathUnits="userSpaceOnUse"
       id="clipPath1319">
      <path
         id="path1321"
         style="display:none;fill:#f9f9f9;fill-opacity:1;stroke:none;stroke-width:1.11125;stroke-linecap:round;stroke-linejoin:round;stroke-miterlimit:4;stroke-dasharray:none;stroke-dashoffset:0;stroke-opacity:1;paint-order:markers fill stroke"
         d="m 140.13511,-16.607255 c -2.216,0 -4.00027,1.784275 -4.00027,4.000273 V 26.892414 H 68.937394 V -7.8072753 c 0,-2.2159987 -1.784273,-3.9997557 -4.000273,-3.9997557 H -45.259252 c -2.215999,0 -3.999756,1.783757 -3.999756,3.9997557 V 206.78582 c 0,2.21601 1.783757,4.00028 3.999756,4.00028 h 71.07473 c 0.46926,0.19243 0.982721,0.30024 1.522904,0.30024 H 241.93148 c 2.216,0 4.00028,-1.78428 4.00028,-4.00027 v -1.1002 h 4.39973 c 2.216,0 3.99975,-1.78376 3.99975,-3.99975 V -12.606982 c 0,-2.215998 -1.78375,-4.000273 -3.99975,-4.000273 z M 96.830782,65.853344 c 1.292445,0.03874 2.595669,1.615501 3.424078,3.326413 7.07758,11.494739 14.15523,22.989443 21.23281,34.484203 1.8362,2.83992 0.42342,6.68157 -1.18184,8.73176 -7.07758,11.4948 -14.15524,22.98993 -21.232807,34.48472 -1.748592,2.98216 -4.114081,0.68732 -5.376416,-1.91978 -7.077546,-11.4948 -14.154755,-22.98992 -21.232296,-34.48472 -1.154533,-1.78668 -1.154822,-5.02454 0,-6.81198 7.471518,-12.134621 14.943132,-24.269381 22.414653,-36.403982 0.601078,-1.025123 1.274824,-1.426927 1.951818,-1.406634 z" />
      <path
         id="lpe_path-effect1355"
         style="fill:#f9f9f9;fill-opacity:1;stroke:none;stroke-width:1.11125;stroke-linecap:round;stroke-linejoin:round;stroke-miterlimit:4;stroke-dasharray:none;stroke-dashoffset:0;stroke-opacity:1;paint-order:markers fill stroke"
         class="powerclip"
         d="M 55.288448,46.902836 H 147.25328 V 153.6139 H 55.288448 Z m 84.846662,-63.510091 c -2.216,0 -4.00027,1.784275 -4.00027,4.000273 V 26.892414 H 68.937394 V -7.8072753 c 0,-2.2159987 -1.784273,-3.9997557 -4.000273,-3.9997557 H -45.259252 c -2.215999,0 -3.999756,1.783757 -3.999756,3.9997557 V 206.78582 c 0,2.21601 1.783757,4.00028 3.999756,4.00028 h 71.07473 c 0.46926,0.19243 0.982721,0.30024 1.522904,0.30024 H 241.93148 c 2.216,0 4.00028,-1.78428 4.00028,-4.00027 v -1.1002 h 4.39973 c 2.216,0 3.99975,-1.78376 3.99975,-3.99975 V -12.606982 c 0,-2.215998 -1.78375,-4.000273 -3.99975,-4.000273 z M 96.830782,65.853344 c -0.676994,-0.02029 -1.35074,0.381511 -1.951818,1.406634 -7.471521,12.134601 -14.943135,24.269361 -22.414653,36.403982 -1.154822,1.78744 -1.154533,5.0253 0,6.81198 7.077541,11.4948 14.15475,22.98992 21.232296,34.48472 1.262335,2.6071 3.627824,4.90194 5.376416,1.91978 7.077567,-11.49479 14.155227,-22.98992 21.232807,-34.48472 1.60526,-2.05019 3.01804,-5.89184 1.18184,-8.73176 C 114.41009,92.1692 107.33244,80.674496 100.25486,69.179757 99.426451,67.468845 98.123227,65.892084 96.830782,65.853344 Z" />
    </clipPath>
    <clipPath
       clipPathUnits="userSpaceOnUse"
       id="clipPath1323">
      <path
         id="path1325"
         style="display:none;fill:#f9f9f9;fill-opacity:1;stroke:none;stroke-width:1.11125;stroke-linecap:round;stroke-linejoin:round;stroke-miterlimit:4;stroke-dasharray:none;stroke-dashoffset:0;stroke-opacity:1;paint-order:markers fill stroke"
         d="m 97.464036,-102.05103 c -1.708479,1.4113 -1.947765,3.923269 -0.536472,5.631747 l 25.155816,30.453036 -51.807535,42.795753 -22.099044,-26.752583 c -1.411294,-1.70848 -3.922937,-1.947368 -5.631416,-0.536074 l -84.958617,70.180296 c -1.70848,1.411294 -1.947698,3.92254 -0.536404,5.631019 L 93.717361,190.79802 c 1.411295,1.70848 3.92287,1.94809 5.631349,0.5368 l 54.79682,-45.26506 c 0.48434,-0.1505 0.94886,-0.39439 1.36533,-0.73841 L 320.95672,8.6643506 c 1.70848,-1.411294 1.94776,-3.9232723 0.53647,-5.6317455 l -0.70067,-0.848219 3.39208,-2.80203889 c 1.70848,-1.41129401 1.94769,-3.92254621 0.5364,-5.63101741 L 188.054,-171.69452 c -1.41129,-1.70848 -3.92287,-1.9481 -5.63134,-0.53681 z m 19.129784,91.154084 c 1.02112,-0.793246 3.03006,-0.407582 4.75836,0.3839 12.77724,4.3546872 25.55452,8.7092975 38.33177,13.0639957 3.22431,1.0200999 4.58171,4.8816635 4.64979,7.4846423 1.86401,13.36967 3.72816,26.739644 5.59218,40.109295 0.55111,3.412789 -2.73412,3.150024 -5.36773,1.943953 -12.77725,-4.354752 -25.55445,-8.709964 -38.33169,-13.06472 -2.028,-0.642203 -4.0903,-3.138326 -4.33832,-5.251869 -1.96778,-14.113838 -3.93556,-28.2278457 -5.90332,-42.3416724 -0.18945,-1.1731496 0.0741,-1.9120156 0.60896,-2.3275246 z" />
      <path
         id="lpe_path-effect1359"
         style="fill:#f9f9f9;fill-opacity:1;stroke:none;stroke-width:1.11125;stroke-linecap:round;stroke-linejoin:round;stroke-miterlimit:4;stroke-dasharray:none;stroke-dashoffset:0;stroke-opacity:1;paint-order:markers fill stroke"
         class="powerclip"
         d="m 131.37959,-43.424271 h 80.8593 v 108.33535 h -80.8593 z M 97.464036,-102.05103 c -1.708479,1.4113 -1.947765,3.923269 -0.536472,5.631747 l 25.155816,30.453036 -51.807535,42.795753 -22.099044,-26.752583 c -1.411294,-1.70848 -3.922937,-1.947368 -5.631416,-0.536074 l -84.958617,70.180296 c -1.70848,1.411294 -1.947698,3.92254 -0.536404,5.631019 L 93.717361,190.79802 c 1.411295,1.70848 3.92287,1.94809 5.631349,0.5368 l 54.79682,-45.26506 c 0.48434,-0.1505 0.94886,-0.39439 1.36533,-0.73841 L 320.95672,8.6643506 c 1.70848,-1.411294 1.94776,-3.9232723 0.53647,-5.6317455 l -0.70067,-0.848219 3.39208,-2.80203889 c 1.70848,-1.41129401 1.94769,-3.92254621 0.5364,-5.63101741 L 188.054,-171.69452 c -1.41129,-1.70848 -3.92287,-1.9481 -5.63134,-0.53681 z m 19.129784,91.154084 c -0.53486,0.415509 -0.79841,1.154375 -0.60896,2.3275246 1.96776,14.1138267 3.93554,28.2278344 5.90332,42.3416724 0.24802,2.113543 2.31032,4.609666 4.33832,5.251869 12.77724,4.354756 25.55444,8.709968 38.33169,13.06472 2.63361,1.206071 5.91884,1.468836 5.36773,-1.943953 -1.86402,-13.369651 -3.72817,-26.739625 -5.59218,-40.109295 -0.0681,-2.6029788 -1.42548,-6.4645424 -4.64979,-7.4846423 -12.77725,-4.3546982 -25.55453,-8.7093085 -38.33177,-13.0639957 -1.7283,-0.791482 -3.73724,-1.177146 -4.75836,-0.3839 z" />
    </clipPath>
    <clipPath
       clipPathUnits="userSpaceOnUse"
       id="clipPath1327">
      <path
         id="path1329"
         style="display:none;fill:#f9f9f9;fill-opacity:1;stroke:none;stroke-width:1.11125;stroke-linecap:round;stroke-linejoin:round;stroke-miterlimit:4;stroke-dasharray:none;stroke-dashoffset:0;stroke-opacity:1;paint-order:markers fill stroke"
         d="m 140.38919,-14.301306 c -2.2157,-0.03643 -4.02907,1.718273 -4.0655,3.933971 l -0.64934,39.494059 -67.188361,-1.10467 0.570434,-34.6950006 c 0.03643,-2.2156995 -1.718279,-4.0285474 -3.933979,-4.0649764 L -45.059038,-12.54946 c -2.2157,-0.03643 -4.02854,1.717763 -4.064969,3.9334625 L -52.651739,205.9481 c -0.03643,2.21571 1.717755,4.02906 3.933454,4.06549 l 71.065126,1.16841 c 0.466033,0.20012 0.977652,0.31635 1.517763,0.32523 l 214.564106,3.52774 c 2.2157,0.0364 4.02906,-1.71828 4.06549,-3.93397 l 0.0181,-1.10005 4.39913,0.0723 c 2.2157,0.0364 4.02854,-1.71777 4.06497,-3.93346 l 3.52773,-214.5641039 c 0.0364,-2.2156981 -1.71775,-4.0290551 -3.93345,-4.0654841 z M 95.735123,67.436263 c 1.291633,0.05998 2.56876,1.657953 3.368935,3.382253 6.887652,11.609534 13.775392,23.219036 20.663052,34.828584 1.78926,2.86973 0.31352,6.68764 -1.32523,8.71116 -7.26559,11.3769 -14.53126,22.75412 -21.796838,34.13101 -1.797379,2.95301 -4.124823,0.61959 -5.344129,-2.00791 -6.887625,-11.60959 -13.774908,-23.2195 -20.662527,-34.82909 -1.125006,-1.80542 -1.072067,-5.04285 0.111983,-6.81107 7.669992,-12.010151 15.340081,-24.020444 23.010076,-36.03058 0.617848,-1.015103 1.298108,-1.405777 1.974678,-1.374357 z" />
      <path
         id="lpe_path-effect1363"
         style="fill:#f9f9f9;fill-opacity:1;stroke:none;stroke-width:1.11125;stroke-linecap:round;stroke-linejoin:round;stroke-miterlimit:4;stroke-dasharray:none;stroke-dashoffset:0;stroke-opacity:1;paint-order:markers fill stroke"
         class="powerclip"
         d="M 56.985806,60.121223 H 137.8451 V 168.45657 H 56.985806 Z m 83.403384,-74.422529 c -2.2157,-0.03643 -4.02907,1.718273 -4.0655,3.933971 l -0.64934,39.494059 -67.188361,-1.10467 0.570434,-34.6950006 c 0.03643,-2.2156995 -1.718279,-4.0285474 -3.933979,-4.0649764 L -45.059038,-12.54946 c -2.2157,-0.03643 -4.02854,1.717763 -4.064969,3.9334625 L -52.651739,205.9481 c -0.03643,2.21571 1.717755,4.02906 3.933454,4.06549 l 71.065126,1.16841 c 0.466033,0.20012 0.977652,0.31635 1.517763,0.32523 l 214.564106,3.52774 c 2.2157,0.0364 4.02906,-1.71828 4.06549,-3.93397 l 0.0181,-1.10005 4.39913,0.0723 c 2.2157,0.0364 4.02854,-1.71777 4.06497,-3.93346 l 3.52773,-214.5641039 c 0.0364,-2.2156981 -1.71775,-4.0290551 -3.93345,-4.0654841 z M 95.735123,67.436263 c -0.67657,-0.03142 -1.35683,0.359254 -1.974678,1.374357 -7.669995,12.010136 -15.340084,24.020429 -23.010076,36.03058 -1.18405,1.76822 -1.236989,5.00565 -0.111983,6.81107 6.887619,11.60959 13.774902,23.2195 20.662527,34.82909 1.219306,2.6275 3.54675,4.96092 5.344129,2.00791 7.265578,-11.37689 14.531248,-22.75411 21.796838,-34.13101 1.63875,-2.02352 3.11449,-5.84143 1.32523,-8.71116 -6.88766,-11.609548 -13.7754,-23.21905 -20.663052,-34.828584 -0.800175,-1.7243 -2.077302,-3.322273 -3.368935,-3.382253 z" />
    </clipPath>
    <clipPath
       clipPathUnits="userSpaceOnUse"
       id="clipPath1331">
      <path
         id="path1333"
         style="display:none;fill:#f9f9f9;fill-opacity:1;stroke:none;stroke-width:1.11125;stroke-linecap:round;stroke-linejoin:round;stroke-miterlimit:4;stroke-dasharray:none;stroke-dashoffset:0;stroke-opacity:1;paint-order:markers fill stroke"
         d="m 140.13511,-16.607255 c -2.216,0 -4.00027,1.784275 -4.00027,4.000273 V 26.892414 H 68.937394 V -7.8072753 c 0,-2.2159987 -1.784273,-3.9997557 -4.000273,-3.9997557 H -45.259252 c -2.215999,0 -3.999756,1.783757 -3.999756,3.9997557 V 206.78582 c 0,2.21601 1.783757,4.00028 3.999756,4.00028 h 71.07473 c 0.46926,0.19243 0.982721,0.30024 1.522904,0.30024 H 241.93148 c 2.216,0 4.00028,-1.78428 4.00028,-4.00027 v -1.1002 h 4.39973 c 2.216,0 3.99975,-1.78376 3.99975,-3.99975 V -12.606982 c 0,-2.215998 -1.78375,-4.000273 -3.99975,-4.000273 z M 96.830782,65.853344 c 1.292445,0.03874 2.595669,1.615501 3.424078,3.326413 7.07758,11.494739 14.15523,22.989443 21.23281,34.484203 1.8362,2.83992 0.42342,6.68157 -1.18184,8.73176 -7.07758,11.4948 -14.15524,22.98993 -21.232807,34.48472 -1.748592,2.98216 -4.114081,0.68732 -5.376416,-1.91978 -7.077546,-11.4948 -14.154755,-22.98992 -21.232296,-34.48472 -1.154533,-1.78668 -1.154822,-5.02454 0,-6.81198 7.471518,-12.134621 14.943132,-24.269381 22.414653,-36.403982 0.601078,-1.025123 1.274824,-1.426927 1.951818,-1.406634 z" />
      <path
         id="lpe_path-effect1367"
         style="fill:#f9f9f9;fill-opacity:1;stroke:none;stroke-width:1.11125;stroke-linecap:round;stroke-linejoin:round;stroke-miterlimit:4;stroke-dasharray:none;stroke-dashoffset:0;stroke-opacity:1;paint-order:markers fill stroke"
         class="powerclip"
         d="M 82.567402,58.853864 H 128.58512 V 119.70508 H 82.567402 Z m 57.567708,-75.461119 c -2.216,0 -4.00027,1.784275 -4.00027,4.000273 V 26.892414 H 68.937394 V -7.8072753 c 0,-2.2159987 -1.784273,-3.9997557 -4.000273,-3.9997557 H -45.259252 c -2.215999,0 -3.999756,1.783757 -3.999756,3.9997557 V 206.78582 c 0,2.21601 1.783757,4.00028 3.999756,4.00028 h 71.07473 c 0.46926,0.19243 0.982721,0.30024 1.522904,0.30024 H 241.93148 c 2.216,0 4.00028,-1.78428 4.00028,-4.00027 v -1.1002 h 4.39973 c 2.216,0 3.99975,-1.78376 3.99975,-3.99975 V -12.606982 c 0,-2.215998 -1.78375,-4.000273 -3.99975,-4.000273 z M 96.830782,65.853344 c -0.676994,-0.02029 -1.35074,0.381511 -1.951818,1.406634 -7.471521,12.134601 -14.943135,24.269361 -22.414653,36.403982 -1.154822,1.78744 -1.154533,5.0253 0,6.81198 7.077541,11.4948 14.15475,22.98992 21.232296,34.48472 1.262335,2.6071 3.627824,4.90194 5.376416,1.91978 7.077567,-11.49479 14.155227,-22.98992 21.232807,-34.48472 1.60526,-2.05019 3.01804,-5.89184 1.18184,-8.73176 C 114.41009,92.1692 107.33244,80.674496 100.25486,69.179757 99.426451,67.468845 98.123227,65.892084 96.830782,65.853344 Z" />
    </clipPath>
    <clipPath
       clipPathUnits="userSpaceOnUse"
       id="clipPath1335">
      <path
         id="path1337"
         style="display:none;fill:#f9f9f9;fill-opacity:1;stroke:none;stroke-width:1.11125;stroke-linecap:round;stroke-linejoin:round;stroke-miterlimit:4;stroke-dasharray:none;stroke-dashoffset:0;stroke-opacity:1;paint-order:markers fill stroke"
         d="m 140.13511,-16.607255 c -2.216,0 -4.00027,1.784275 -4.00027,4.000273 V 26.892414 H 68.937394 V -7.8072753 c 0,-2.2159987 -1.784273,-3.9997557 -4.000273,-3.9997557 H -45.259252 c -2.215999,0 -3.999756,1.783757 -3.999756,3.9997557 V 206.78582 c 0,2.21601 1.783757,4.00028 3.999756,4.00028 h 71.07473 c 0.46926,0.19243 0.982721,0.30024 1.522904,0.30024 H 241.93148 c 2.216,0 4.00028,-1.78428 4.00028,-4.00027 v -1.1002 h 4.39973 c 2.216,0 3.99975,-1.78376 3.99975,-3.99975 V -12.606982 c 0,-2.215998 -1.78375,-4.000273 -3.99975,-4.000273 z M 96.830782,65.853344 c 1.292445,0.03874 2.595669,1.615501 3.424078,3.326413 7.07758,11.494739 14.15523,22.989443 21.23281,34.484203 1.8362,2.83992 0.42342,6.68157 -1.18184,8.73176 -7.07758,11.4948 -14.15524,22.98993 -21.232807,34.48472 -1.748592,2.98216 -4.114081,0.68732 -5.376416,-1.91978 -7.077546,-11.4948 -14.154755,-22.98992 -21.232296,-34.48472 -1.154533,-1.78668 -1.154822,-5.02454 0,-6.81198 7.471518,-12.134621 14.943132,-24.269381 22.414653,-36.403982 0.601078,-1.025123 1.274824,-1.426927 1.951818,-1.406634 z" />
      <path
         id="lpe_path-effect1371"
         style="fill:#f9f9f9;fill-opacity:1;stroke:none;stroke-width:1.11125;stroke-linecap:round;stroke-linejoin:round;stroke-miterlimit:4;stroke-dasharray:none;stroke-dashoffset:0;stroke-opacity:1;paint-order:markers fill stroke"
         class="powerclip"
         d="m 82.567402,102.06996 h 46.017718 v 53.21625 H 82.567402 Z M 140.13511,-16.607255 c -2.216,0 -4.00027,1.784275 -4.00027,4.000273 V 26.892414 H 68.937394 V -7.8072753 c 0,-2.2159987 -1.784273,-3.9997557 -4.000273,-3.9997557 H -45.259252 c -2.215999,0 -3.999756,1.783757 -3.999756,3.9997557 V 206.78582 c 0,2.21601 1.783757,4.00028 3.999756,4.00028 h 71.07473 c 0.46926,0.19243 0.982721,0.30024 1.522904,0.30024 H 241.93148 c 2.216,0 4.00028,-1.78428 4.00028,-4.00027 v -1.1002 h 4.39973 c 2.216,0 3.99975,-1.78376 3.99975,-3.99975 V -12.606982 c 0,-2.215998 -1.78375,-4.000273 -3.99975,-4.000273 z M 96.830782,65.853344 c -0.676994,-0.02029 -1.35074,0.381511 -1.951818,1.406634 -7.471521,12.134601 -14.943135,24.269361 -22.414653,36.403982 -1.154822,1.78744 -1.154533,5.0253 0,6.81198 7.077541,11.4948 14.15475,22.98992 21.232296,34.48472 1.262335,2.6071 3.627824,4.90194 5.376416,1.91978 7.077567,-11.49479 14.155227,-22.98992 21.232807,-34.48472 1.60526,-2.05019 3.01804,-5.89184 1.18184,-8.73176 C 114.41009,92.1692 107.33244,80.674496 100.25486,69.179757 99.426451,67.468845 98.123227,65.892084 96.830782,65.853344 Z" />
    </clipPath>
    <clipPath
       clipPathUnits="userSpaceOnUse"
       id="clipPath1339">
      <path
         id="path1341"
         style="display:none;fill:#f9f9f9;fill-opacity:1;stroke:none;stroke-width:1.11125;stroke-linecap:round;stroke-linejoin:round;stroke-miterlimit:4;stroke-dasharray:none;stroke-dashoffset:0;stroke-opacity:1;paint-order:markers fill stroke"
         d="m 140.13511,-16.607255 c -2.216,0 -4.00027,1.784275 -4.00027,4.000273 V 26.892414 H 68.937394 V -7.8072753 c 0,-2.2159987 -1.784273,-3.9997557 -4.000273,-3.9997557 H -45.259252 c -2.215999,0 -3.999756,1.783757 -3.999756,3.9997557 V 206.78582 c 0,2.21601 1.783757,4.00028 3.999756,4.00028 h 71.07473 c 0.46926,0.19243 0.982721,0.30024 1.522904,0.30024 H 241.93148 c 2.216,0 4.00028,-1.78428 4.00028,-4.00027 v -1.1002 h 4.39973 c 2.216,0 3.99975,-1.78376 3.99975,-3.99975 V -12.606982 c 0,-2.215998 -1.78375,-4.000273 -3.99975,-4.000273 z M 96.830782,65.853344 c 1.292445,0.03874 2.595669,1.615501 3.424078,3.326413 7.07758,11.494739 14.15523,22.989443 21.23281,34.484203 1.8362,2.83992 0.42342,6.68157 -1.18184,8.73176 -7.07758,11.4948 -14.15524,22.98993 -21.232807,34.48472 -1.748592,2.98216 -4.114081,0.68732 -5.376416,-1.91978 -7.077546,-11.4948 -14.154755,-22.98992 -21.232296,-34.48472 -1.154533,-1.78668 -1.154822,-5.02454 0,-6.81198 7.471518,-12.134621 14.943132,-24.269381 22.414653,-36.403982 0.601078,-1.025123 1.274824,-1.426927 1.951818,-1.406634 z" />
      <path
         id="lpe_path-effect1375"
         style="fill:#f9f9f9;fill-opacity:1;stroke:none;stroke-width:1.11125;stroke-linecap:round;stroke-linejoin:round;stroke-miterlimit:4;stroke-dasharray:none;stroke-dashoffset:0;stroke-opacity:1;paint-order:markers fill stroke"
         class="powerclip"
         d="m 65.367001,102.06996 h 36.608989 v 53.21626 H 65.367001 Z M 140.13511,-16.607255 c -2.216,0 -4.00027,1.784275 -4.00027,4.000273 V 26.892414 H 68.937394 V -7.8072753 c 0,-2.2159987 -1.784273,-3.9997557 -4.000273,-3.9997557 H -45.259252 c -2.215999,0 -3.999756,1.783757 -3.999756,3.9997557 V 206.78582 c 0,2.21601 1.783757,4.00028 3.999756,4.00028 h 71.07473 c 0.46926,0.19243 0.982721,0.30024 1.522904,0.30024 H 241.93148 c 2.216,0 4.00028,-1.78428 4.00028,-4.00027 v -1.1002 h 4.39973 c 2.216,0 3.99975,-1.78376 3.99975,-3.99975 V -12.606982 c 0,-2.215998 -1.78375,-4.000273 -3.99975,-4.000273 z M 96.830782,65.853344 c -0.676994,-0.02029 -1.35074,0.381511 -1.951818,1.406634 -7.471521,12.134601 -14.943135,24.269361 -22.414653,36.403982 -1.154822,1.78744 -1.154533,5.0253 0,6.81198 7.077541,11.4948 14.15475,22.98992 21.232296,34.48472 1.262335,2.6071 3.627824,4.90194 5.376416,1.91978 7.077567,-11.49479 14.155227,-22.98992 21.232807,-34.48472 1.60526,-2.05019 3.01804,-5.89184 1.18184,-8.73176 C 114.41009,92.1692 107.33244,80.674496 100.25486,69.179757 99.426451,67.468845 98.123227,65.892084 96.830782,65.853344 Z" />
    </clipPath>
    <clipPath
       clipPathUnits="userSpaceOnUse"
       id="clipPath1343">
      <path
         id="path1345"
         style="display:none;fill:#f9f9f9;fill-opacity:1;stroke:none;stroke-width:1.11125;stroke-linecap:round;stroke-linejoin:round;stroke-miterlimit:4;stroke-dasharray:none;stroke-dashoffset:0;stroke-opacity:1;paint-order:markers fill stroke"
         d="m 140.13511,-16.607255 c -2.216,0 -4.00027,1.784275 -4.00027,4.000273 V 26.892414 H 68.937394 V -7.8072753 c 0,-2.2159987 -1.784273,-3.9997557 -4.000273,-3.9997557 H -45.259252 c -2.215999,0 -3.999756,1.783757 -3.999756,3.9997557 V 206.78582 c 0,2.21601 1.783757,4.00028 3.999756,4.00028 h 71.07473 c 0.46926,0.19243 0.982721,0.30024 1.522904,0.30024 H 241.93148 c 2.216,0 4.00028,-1.78428 4.00028,-4.00027 v -1.1002 h 4.39973 c 2.216,0 3.99975,-1.78376 3.99975,-3.99975 V -12.606982 c 0,-2.215998 -1.78375,-4.000273 -3.99975,-4.000273 z M 96.830782,65.853344 c 1.292445,0.03874 2.595669,1.615501 3.424078,3.326413 7.07758,11.494739 14.15523,22.989443 21.23281,34.484203 1.8362,2.83992 0.42342,6.68157 -1.18184,8.73176 -7.07758,11.4948 -14.15524,22.98993 -21.232807,34.48472 -1.748592,2.98216 -4.114081,0.68732 -5.376416,-1.91978 -7.077546,-11.4948 -14.154755,-22.98992 -21.232296,-34.48472 -1.154533,-1.78668 -1.154822,-5.02454 0,-6.81198 7.471518,-12.134621 14.943132,-24.269381 22.414653,-36.403982 0.601078,-1.025123 1.274824,-1.426927 1.951818,-1.406634 z" />
      <path
         id="lpe_path-effect1379"
         style="fill:#f9f9f9;fill-opacity:1;stroke:none;stroke-width:1.11125;stroke-linecap:round;stroke-linejoin:round;stroke-miterlimit:4;stroke-dasharray:none;stroke-dashoffset:0;stroke-opacity:1;paint-order:markers fill stroke"
         class="powerclip"
         d="M 65.367001,58.853864 H 101.97599 V 119.70508 H 65.367001 Z m 74.768109,-75.461119 c -2.216,0 -4.00027,1.784275 -4.00027,4.000273 V 26.892414 H 68.937394 V -7.8072753 c 0,-2.2159987 -1.784273,-3.9997557 -4.000273,-3.9997557 H -45.259252 c -2.215999,0 -3.999756,1.783757 -3.999756,3.9997557 V 206.78582 c 0,2.21601 1.783757,4.00028 3.999756,4.00028 h 71.07473 c 0.46926,0.19243 0.982721,0.30024 1.522904,0.30024 H 241.93148 c 2.216,0 4.00028,-1.78428 4.00028,-4.00027 v -1.1002 h 4.39973 c 2.216,0 3.99975,-1.78376 3.99975,-3.99975 V -12.606982 c 0,-2.215998 -1.78375,-4.000273 -3.99975,-4.000273 z M 96.830782,65.853344 c -0.676994,-0.02029 -1.35074,0.381511 -1.951818,1.406634 -7.471521,12.134601 -14.943135,24.269361 -22.414653,36.403982 -1.154822,1.78744 -1.154533,5.0253 0,6.81198 7.077541,11.4948 14.15475,22.98992 21.232296,34.48472 1.262335,2.6071 3.627824,4.90194 5.376416,1.91978 7.077567,-11.49479 14.155227,-22.98992 21.232807,-34.48472 1.60526,-2.05019 3.01804,-5.89184 1.18184,-8.73176 C 114.41009,92.1692 107.33244,80.674496 100.25486,69.179757 99.426451,67.468845 98.123227,65.892084 96.830782,65.853344 Z" />
    </clipPath>
    <radialGradient
       inkscape:collect="always"
       xlink:href="#linearGradient1392"
       id="radialGradient1394"
       cx="104.04779"
       cy="96.619232"
       fx="104.04779"
       fy="96.619232"
       r="43.05397"
       gradientTransform="matrix(-0.64253675,0.14607801,-0.17820055,-0.78383056,188.11991,156.65159)"
       gradientUnits="userSpaceOnUse" />
    <linearGradient
       inkscape:collect="always"
       xlink:href="#linearGradient1406"
       id="linearGradient1400"
       x1="137.97836"
       y1="91.617439"
       x2="66.902809"
       y2="142.40474"
       gradientUnits="userSpaceOnUse" />
    <linearGradient
       inkscape:collect="always"
       xlink:href="#linearGradient1426"
       id="linearGradient1428"
       x1="60.029491"
       y1="127.29713"
       x2="82.331871"
       y2="86.956581"
       gradientUnits="userSpaceOnUse" />
  </defs>
  <sodipodi:namedview
     id="base"
     pagecolor="#ffffff"
     bordercolor="#666666"
     borderopacity="1.0"
     inkscape:pageopacity="0.0"
     inkscape:pageshadow="2"
     inkscape:zoom="1.0726962"
     inkscape:cx="305.09053"
     inkscape:cy="233.83739"
     inkscape:document-units="mm"
     inkscape:current-layer="layer6"
     inkscape:document-rotation="0"
     showgrid="false"
     inkscape:window-width="1387"
     inkscape:window-height="847"
     inkscape:window-x="53"
     inkscape:window-y="25"
     inkscape:window-maximized="1" />
  <metadata
     id="metadata5">
    <rdf:RDF>
      <cc:Work
         rdf:about="">
        <dc:format>image/svg+xml</dc:format>
        <dc:type
           rdf:resource="http://purl.org/dc/dcmitype/StillImage" />
        <dc:title />
      </cc:Work>
    </rdf:RDF>
  </metadata>
  <g
     inkscape:groupmode="layer"
     id="layer7"
     inkscape:label="circle lighting"
     style="display:inline;opacity:1;mix-blend-mode:multiply"
     sodipodi:insensitive="true"
     transform="translate(-49.707088,-56.992214)">
    <ellipse
       style="display:inline;opacity:1;mix-blend-mode:normal;fill:url(#radialGradient1394);fill-opacity:1;stroke:none;stroke-width:0.471025;stroke-linecap:round;stroke-linejoin:round;paint-order:markers fill stroke"
       id="ellipse1384"
       mask="none"
       cx="96.976128"
       cy="107.04649"
       rx="43.05397"
       ry="45.125298" />
    <ellipse
       style="display:inline;opacity:1;mix-blend-mode:normal;fill:url(#linearGradient1400);fill-opacity:1;stroke:none;stroke-width:0.471025;stroke-linecap:round;stroke-linejoin:round;paint-order:markers fill stroke"
       id="ellipse1396"
       mask="none"
       cx="96.976128"
       cy="107.04649"
       rx="43.05397"
       ry="45.125298" />
  </g>
  <g
     inkscape:groupmode="layer"
     id="layer6"
     inkscape:label="Circle"
     style="display:inline;opacity:1;mix-blend-mode:screen"
     sodipodi:insensitive="true"
     transform="translate(-49.707088,-56.992214)">
    <ellipse
       style="fill:#ffd5e5;stroke:none;stroke-width:0.471025;stroke-linecap:round;stroke-linejoin:round;paint-order:markers fill stroke"
       id="path985"
       mask="none"
       cx="96.976128"
       cy="107.04649"
       rx="43.05397"
       ry="45.125298" />
    <ellipse
       style="opacity:1;mix-blend-mode:normal;fill:url(#linearGradient1428);fill-opacity:1;stroke:none;stroke-width:0.471025;stroke-linecap:round;stroke-linejoin:round;paint-order:markers fill stroke"
       id="ellipse1420"
       mask="none"
       cx="96.976128"
       cy="107.04649"
       rx="43.05397"
       ry="45.125298" />
  </g>
  <g
     inkscape:label="Layer 1"
     inkscape:groupmode="layer"
     id="layer1"
     style="display:none"
     sodipodi:insensitive="true"
     transform="translate(-49.707088,-56.992214)">
    <rect
       style="fill:#808080;fill-opacity:1;stroke:none;stroke-width:0.549271;stroke-linecap:round;stroke-linejoin:round"
       id="rect837"
       width="50.751019"
       height="50.751019"
       x="4.2359991"
       y="129.97427"
       transform="matrix(0.52430462,-0.85153078,0.52430462,0.85153078,0,0)"
       rx="4" />
  </g>
  <g
     inkscape:groupmode="layer"
     id="layer3"
     inkscape:label="Flat Grey"
     style="display:inline;opacity:1;mix-blend-mode:normal"
     sodipodi:insensitive="true"
     transform="translate(-49.707088,-56.992214)">
    <path
       style="fill:#808080;stroke:none;stroke-width:0.264583px;stroke-linecap:butt;stroke-linejoin:miter;stroke-opacity:1"
       d="m 70.367001,107.06996 17.200401,7.63512 9.408591,-50.851216 z"
       id="path974"
       inkscape:original-d="m 70.367001,107.06996 17.200401,7.63512 9.408591,-50.851216 z"
       clip-path="url(#clipPath1343)"
       inkscape:path-effect="#path-effect1379" />
    <path
       style="fill:#666666;stroke:none;stroke-width:0.264583px;stroke-linecap:butt;stroke-linejoin:miter;stroke-opacity:1"
       d="m 70.367001,107.06996 26.608992,43.21626 -9.408591,-35.58114 z"
       id="path976"
       inkscape:original-d="m 70.367001,107.06996 26.608992,43.21626 -9.408591,-35.58114 z"
       clip-path="url(#clipPath1339)"
       inkscape:path-effect="#path-effect1375" />
    <path
       style="fill:#999999;stroke:none;stroke-width:0.264583px;stroke-linecap:butt;stroke-linejoin:miter;stroke-opacity:1"
       d="m 123.58512,107.06996 -36.017718,7.63512 9.408591,35.58113 z"
       id="path978"
       inkscape:original-d="m 123.58512,107.06996 -36.017718,7.63512 9.408591,35.58113 z"
       clip-path="url(#clipPath1335)"
       inkscape:path-effect="#path-effect1371" />
    <path
       style="fill:#b3b3b3;stroke:none;stroke-width:0.264583px;stroke-linecap:butt;stroke-linejoin:miter;stroke-opacity:1"
       d="M 123.58512,107.06996 96.975993,63.853864 87.567402,114.70508 Z"
       id="path980"
       inkscape:original-d="M 123.58512,107.06996 96.975993,63.853864 87.567402,114.70508 Z"
       clip-path="url(#clipPath1331)"
       inkscape:path-effect="#path-effect1367" />
  </g>
  <g
     inkscape:groupmode="layer"
     id="g1035"
     inkscape:label="Light gradient?"
     style="display:inline;opacity:1;mix-blend-mode:multiply"
     sodipodi:insensitive="true"
     transform="translate(-49.707088,-56.992214)">
    <path
       style="fill:url(#linearGradient1053);fill-opacity:1;stroke:none;stroke-width:0.661458;stroke-linecap:round;stroke-linejoin:round;stroke-opacity:1"
       id="rect1037"
       width="70.859299"
       height="98.33535"
       x="61.985806"
       y="65.121223"
       rx="3.9999974"
       transform="rotate(-0.94193754)"
       sodipodi:type="rect"
       d="m 65.985803,65.121223 h 62.859307 c 2.216,0 3.99999,1.783999 3.99999,3.999998 v 90.335359 c 0,2.21599 -1.78399,3.99999 -3.99999,3.99999 H 65.985803 c -2.215999,0 -3.999997,-1.784 -3.999997,-3.99999 V 69.121221 c 0,-2.215999 1.783998,-3.999998 3.999997,-3.999998 z"
       clip-path="url(#clipPath1327)"
       inkscape:path-effect="#path-effect1363" />
    <path
       style="fill:url(#linearGradient1057);fill-opacity:1;stroke:none;stroke-width:0.661458;stroke-linecap:round;stroke-linejoin:round;stroke-opacity:1"
       id="rect1055"
       width="70.859299"
       height="98.33535"
       x="136.37959"
       y="-38.424271"
       rx="3.9999974"
       transform="rotate(39.558502)"
       sodipodi:type="rect"
       d="m 140.37959,-38.424271 h 62.8593 c 2.216,0 4,1.783999 4,3.999998 v 90.335355 c 0,2.215999 -1.784,3.999997 -4,3.999997 h -62.8593 c -2.216,0 -4,-1.783998 -4,-3.999997 v -90.335355 c 0,-2.215999 1.784,-3.999998 4,-3.999998 z"
       clip-path="url(#clipPath1323)"
       inkscape:path-effect="#path-effect1359" />
    <path
       style="opacity:0.758842;fill:url(#radialGradient1069);fill-opacity:1;stroke:none;stroke-width:0.661458;stroke-linecap:round;stroke-linejoin:round;stroke-opacity:1"
       id="path1061"
       clip-path="url(#clipPath1319)"
       inkscape:path-effect="#path-effect1355"
       sodipodi:type="arc"
       sodipodi:cx="101.27087"
       sodipodi:cy="100.25837"
       sodipodi:rx="40.982418"
       sodipodi:ry="48.355534"
       d="M 142.25328,100.25837 A 40.982418,48.355534 0 0 1 101.27087,148.6139 40.982418,48.355534 0 0 1 60.288448,100.25837 40.982418,48.355534 0 0 1 101.27087,51.902836 40.982418,48.355534 0 0 1 142.25328,100.25837 Z" />
  </g>
  <g
     inkscape:groupmode="layer"
     id="layer2"
     inkscape:label="Multiply/Screen"
     style="display:inline;opacity:0.192926;mix-blend-mode:screen"
     sodipodi:insensitive="true"
     transform="translate(-49.707088,-56.992214)">
    <path
       style="fill:#808080;fill-opacity:1;stroke:none;stroke-width:0.549271;stroke-linecap:round;stroke-linejoin:round"
       id="rect860"
       width="50.751019"
       height="50.751019"
       x="4.2359991"
       y="129.97427"
       transform="matrix(0.52430462,-0.85153078,0.52430462,0.85153078,0,0)"
       rx="4"
       sodipodi:type="rect"
       d="M 8.2359991,129.97427 H 50.987018 c 2.216,0 4,1.784 4,4 v 42.75102 c 0,2.216 -1.784,4 -4,4 H 8.2359991 c -2.216,0 -4,-1.784 -4,-4 v -42.75102 c 0,-2.216 1.784,-4 4,-4 z"
       clip-path="url(#clipPath1315)"
       inkscape:path-effect="#path-effect1351" />
  </g>
  <g
     inkscape:groupmode="layer"
     id="layer5"
     inkscape:label="Color"
     style="display:inline;mix-blend-mode:overlay"
     sodipodi:insensitive="true"
     transform="translate(-49.707088,-56.992214)">
    <path
       style="fill:#80e5ff;fill-opacity:1;stroke:none;stroke-width:0.661458;stroke-linecap:round;stroke-linejoin:round;stroke-opacity:1"
       id="rect1025"
       width="190.14053"
       height="156.78755"
       x="56.456985"
       y="39.115658"
       rx="3.9999974"
       clip-path="url(#clipPath1311)"
       inkscape:path-effect="#path-effect1347"
       d="M 60.456983,39.115658 H 242.59752 c 2.216,0 4,1.783999 4,3.999997 V 191.90321 c 0,2.216 -1.784,4 -4,4 H 60.456983 c -2.215999,0 -3.999998,-1.784 -3.999998,-4 V 43.115655 c 0,-2.215998 1.783999,-3.999997 3.999998,-3.999997 z"
       sodipodi:type="rect" />
  </g>
  <g
     inkscape:groupmode="layer"
     id="layer4"
     inkscape:label="Mask"
     style="display:inline"
     sodipodi:insensitive="true"
     transform="translate(-49.707088,-56.992214)" />
  <g
     inkscape:groupmode="layer"
     id="layer8"
     inkscape:label="Mask 1"
     style="display:inline;mix-blend-mode:normal"
     transform="translate(-49.707088,-56.992214)">
    <rect
       style="fill:none;fill-opacity:0.69;stroke-width:1.2112;stroke-linecap:round;stroke-linejoin:round;paint-order:markers fill stroke"
       id="rect969"
       width="94.538078"
       height="100.10856"
       x="49.707088"
       y="56.992214"
       rx="4.2366953"
       inkscape:export-xdpi="299.90244"
       inkscape:export-ydpi="299.90244" />
  </g>
</svg>
